<mxfile host="app.diagrams.net" modified="2024-04-26T11:41:00.726Z" agent="Mozilla/5.0 (Windows NT 10.0; Win64; x64) AppleWebKit/537.36 (KHTML, like Gecko) Chrome/124.0.0.0 Safari/537.36" etag="ojOLqxBDDKCLEKWE0IR-" version="24.3.0" type="device">
  <diagram name="Pagină-1" id="kNwXTh53voXS9UOptByz">
    <mxGraphModel dx="1304" dy="678" grid="1" gridSize="10" guides="1" tooltips="1" connect="1" arrows="1" fold="1" page="1" pageScale="1" pageWidth="827" pageHeight="1169" background="#ffffff" math="0" shadow="0">
      <root>
        <mxCell id="0" />
        <mxCell id="1" parent="0" />
        <mxCell id="CeDH94izONLsoh-cn26r-31" value="" style="swimlane;startSize=0;" vertex="1" parent="1">
          <mxGeometry x="560" y="90" width="160" height="70" as="geometry">
            <mxRectangle x="240" y="225" width="50" height="40" as="alternateBounds" />
          </mxGeometry>
        </mxCell>
        <mxCell id="CeDH94izONLsoh-cn26r-32" value="&lt;b&gt;&lt;font style=&quot;font-size: 16px;&quot;&gt;Frontend&lt;/font&gt;&lt;/b&gt;" style="text;html=1;align=center;verticalAlign=middle;resizable=0;points=[];autosize=1;strokeWidth=4;" vertex="1" parent="CeDH94izONLsoh-cn26r-31">
          <mxGeometry x="32.5" y="20" width="90" height="30" as="geometry" />
        </mxCell>
        <mxCell id="CeDH94izONLsoh-cn26r-51" style="edgeStyle=orthogonalEdgeStyle;rounded=0;orthogonalLoop=1;jettySize=auto;html=1;exitX=0.5;exitY=0;exitDx=0;exitDy=0;entryX=0.5;entryY=1;entryDx=0;entryDy=0;" edge="1" parent="1" source="CeDH94izONLsoh-cn26r-49" target="CeDH94izONLsoh-cn26r-31">
          <mxGeometry relative="1" as="geometry" />
        </mxCell>
        <mxCell id="CeDH94izONLsoh-cn26r-49" value="" style="swimlane;startSize=0;" vertex="1" parent="1">
          <mxGeometry x="560" y="184" width="160" height="70" as="geometry">
            <mxRectangle x="240" y="225" width="50" height="40" as="alternateBounds" />
          </mxGeometry>
        </mxCell>
        <mxCell id="CeDH94izONLsoh-cn26r-50" value="&lt;b&gt;&lt;font style=&quot;font-size: 16px;&quot;&gt;Gateway&lt;/font&gt;&lt;/b&gt;" style="text;html=1;align=center;verticalAlign=middle;resizable=0;points=[];autosize=1;strokeColor=none;fillColor=none;strokeWidth=4;" vertex="1" parent="CeDH94izONLsoh-cn26r-49">
          <mxGeometry x="32.5" y="20" width="90" height="30" as="geometry" />
        </mxCell>
        <mxCell id="CeDH94izONLsoh-cn26r-76" style="edgeStyle=orthogonalEdgeStyle;rounded=0;orthogonalLoop=1;jettySize=auto;html=1;exitX=0.5;exitY=0;exitDx=0;exitDy=0;entryX=0.25;entryY=1;entryDx=0;entryDy=0;" edge="1" parent="1" source="CeDH94izONLsoh-cn26r-55" target="CeDH94izONLsoh-cn26r-57">
          <mxGeometry relative="1" as="geometry" />
        </mxCell>
        <mxCell id="CeDH94izONLsoh-cn26r-55" value="" style="swimlane;startSize=0;" vertex="1" parent="1">
          <mxGeometry x="580" y="380" width="160" height="70" as="geometry">
            <mxRectangle x="240" y="225" width="50" height="40" as="alternateBounds" />
          </mxGeometry>
        </mxCell>
        <mxCell id="CeDH94izONLsoh-cn26r-56" value="&lt;b&gt;&lt;font style=&quot;font-size: 16px;&quot;&gt;Modul care&amp;nbsp;&lt;/font&gt;&lt;/b&gt;&lt;div&gt;&lt;b&gt;&lt;font style=&quot;font-size: 16px;&quot;&gt;clasifică textul&lt;/font&gt;&lt;/b&gt;&lt;/div&gt;" style="text;html=1;align=center;verticalAlign=middle;resizable=0;points=[];autosize=1;strokeColor=none;fillColor=none;strokeWidth=4;" vertex="1" parent="CeDH94izONLsoh-cn26r-55">
          <mxGeometry x="10" y="10" width="130" height="50" as="geometry" />
        </mxCell>
        <mxCell id="CeDH94izONLsoh-cn26r-75" style="edgeStyle=orthogonalEdgeStyle;rounded=0;orthogonalLoop=1;jettySize=auto;html=1;exitX=0.5;exitY=0;exitDx=0;exitDy=0;entryX=0.75;entryY=1;entryDx=0;entryDy=0;" edge="1" parent="1" source="CeDH94izONLsoh-cn26r-57" target="CeDH94izONLsoh-cn26r-49">
          <mxGeometry relative="1" as="geometry" />
        </mxCell>
        <mxCell id="CeDH94izONLsoh-cn26r-57" value="" style="swimlane;startSize=0;" vertex="1" parent="1">
          <mxGeometry x="680" y="280" width="160" height="70" as="geometry">
            <mxRectangle x="240" y="225" width="50" height="40" as="alternateBounds" />
          </mxGeometry>
        </mxCell>
        <mxCell id="CeDH94izONLsoh-cn26r-58" value="&lt;b&gt;&lt;font style=&quot;font-size: 16px;&quot;&gt;Modul care&amp;nbsp;&lt;/font&gt;&lt;/b&gt;&lt;div&gt;&lt;b&gt;&lt;font style=&quot;font-size: 16px;&quot;&gt;procesează datele&lt;/font&gt;&lt;/b&gt;&lt;/div&gt;" style="text;html=1;align=center;verticalAlign=middle;resizable=0;points=[];autosize=1;strokeColor=none;fillColor=none;strokeWidth=4;" vertex="1" parent="CeDH94izONLsoh-cn26r-57">
          <mxGeometry x="-2.5" y="10" width="160" height="50" as="geometry" />
        </mxCell>
        <mxCell id="CeDH94izONLsoh-cn26r-77" style="edgeStyle=orthogonalEdgeStyle;rounded=0;orthogonalLoop=1;jettySize=auto;html=1;exitX=0.5;exitY=0;exitDx=0;exitDy=0;entryX=0.75;entryY=1;entryDx=0;entryDy=0;" edge="1" parent="1" source="CeDH94izONLsoh-cn26r-59" target="CeDH94izONLsoh-cn26r-57">
          <mxGeometry relative="1" as="geometry" />
        </mxCell>
        <mxCell id="CeDH94izONLsoh-cn26r-59" value="" style="swimlane;startSize=0;" vertex="1" parent="1">
          <mxGeometry x="780" y="380" width="160" height="70" as="geometry">
            <mxRectangle x="240" y="225" width="50" height="40" as="alternateBounds" />
          </mxGeometry>
        </mxCell>
        <mxCell id="CeDH94izONLsoh-cn26r-60" value="&lt;b&gt;&lt;font style=&quot;font-size: 16px;&quot;&gt;Modul care&amp;nbsp;&lt;/font&gt;&lt;/b&gt;&lt;div&gt;&lt;b&gt;&lt;font style=&quot;font-size: 16px;&quot;&gt;clasifică imaginile&lt;/font&gt;&lt;/b&gt;&lt;/div&gt;" style="text;html=1;align=center;verticalAlign=middle;resizable=0;points=[];autosize=1;strokeColor=none;fillColor=none;strokeWidth=4;" vertex="1" parent="CeDH94izONLsoh-cn26r-59">
          <mxGeometry x="-1.25" y="10" width="160" height="50" as="geometry" />
        </mxCell>
        <mxCell id="CeDH94izONLsoh-cn26r-70" style="edgeStyle=orthogonalEdgeStyle;rounded=0;orthogonalLoop=1;jettySize=auto;html=1;exitX=0.5;exitY=0;exitDx=0;exitDy=0;entryX=0.5;entryY=1;entryDx=0;entryDy=0;" edge="1" parent="1" source="CeDH94izONLsoh-cn26r-64" target="CeDH94izONLsoh-cn26r-55">
          <mxGeometry relative="1" as="geometry" />
        </mxCell>
        <mxCell id="CeDH94izONLsoh-cn26r-64" value="" style="swimlane;startSize=0;" vertex="1" parent="1">
          <mxGeometry x="580" y="480" width="160" height="70" as="geometry">
            <mxRectangle x="240" y="225" width="50" height="40" as="alternateBounds" />
          </mxGeometry>
        </mxCell>
        <mxCell id="CeDH94izONLsoh-cn26r-65" value="&lt;b&gt;&lt;font style=&quot;font-size: 16px;&quot;&gt;Modul care&amp;nbsp;&lt;/font&gt;&lt;/b&gt;&lt;div&gt;&lt;span style=&quot;font-size: 16px;&quot;&gt;&lt;b&gt;procesează textul&lt;/b&gt;&lt;/span&gt;&lt;/div&gt;" style="text;html=1;align=center;verticalAlign=middle;resizable=0;points=[];autosize=1;strokeColor=none;fillColor=none;strokeWidth=4;" vertex="1" parent="CeDH94izONLsoh-cn26r-64">
          <mxGeometry x="-5" y="10" width="160" height="50" as="geometry" />
        </mxCell>
        <mxCell id="CeDH94izONLsoh-cn26r-71" style="edgeStyle=orthogonalEdgeStyle;rounded=0;orthogonalLoop=1;jettySize=auto;html=1;exitX=0.5;exitY=0;exitDx=0;exitDy=0;entryX=0.5;entryY=1;entryDx=0;entryDy=0;" edge="1" parent="1" source="CeDH94izONLsoh-cn26r-68" target="CeDH94izONLsoh-cn26r-59">
          <mxGeometry relative="1" as="geometry" />
        </mxCell>
        <mxCell id="CeDH94izONLsoh-cn26r-68" value="" style="swimlane;startSize=0;" vertex="1" parent="1">
          <mxGeometry x="780" y="480" width="160" height="70" as="geometry">
            <mxRectangle x="240" y="225" width="50" height="40" as="alternateBounds" />
          </mxGeometry>
        </mxCell>
        <mxCell id="CeDH94izONLsoh-cn26r-69" value="&lt;b&gt;&lt;font style=&quot;font-size: 16px;&quot;&gt;Modul&amp;nbsp;&lt;/font&gt;&lt;/b&gt;&lt;div&gt;&lt;b&gt;&lt;font style=&quot;font-size: 16px;&quot;&gt;care&amp;nbsp;&lt;/font&gt;&lt;/b&gt;&lt;b style=&quot;font-size: 16px; background-color: initial;&quot;&gt;procesează&amp;nbsp;&lt;/b&gt;&lt;/div&gt;&lt;div&gt;&lt;b style=&quot;font-size: 16px; background-color: initial;&quot;&gt;imaginile&lt;/b&gt;&lt;/div&gt;" style="text;html=1;align=center;verticalAlign=middle;resizable=0;points=[];autosize=1;strokeColor=none;fillColor=none;strokeWidth=4;" vertex="1" parent="CeDH94izONLsoh-cn26r-68">
          <mxGeometry x="5" width="150" height="70" as="geometry" />
        </mxCell>
        <mxCell id="CeDH94izONLsoh-cn26r-74" style="edgeStyle=orthogonalEdgeStyle;rounded=0;orthogonalLoop=1;jettySize=auto;html=1;exitX=0.5;exitY=0;exitDx=0;exitDy=0;entryX=0.25;entryY=1;entryDx=0;entryDy=0;" edge="1" parent="1" source="CeDH94izONLsoh-cn26r-72" target="CeDH94izONLsoh-cn26r-49">
          <mxGeometry relative="1" as="geometry" />
        </mxCell>
        <mxCell id="CeDH94izONLsoh-cn26r-72" value="" style="swimlane;startSize=0;" vertex="1" parent="1">
          <mxGeometry x="440" y="280" width="160" height="70" as="geometry">
            <mxRectangle x="240" y="225" width="50" height="40" as="alternateBounds" />
          </mxGeometry>
        </mxCell>
        <mxCell id="CeDH94izONLsoh-cn26r-73" value="&lt;span style=&quot;font-size: 16px;&quot;&gt;&lt;b&gt;Database&lt;/b&gt;&lt;/span&gt;" style="text;html=1;align=center;verticalAlign=middle;resizable=0;points=[];autosize=1;strokeColor=none;fillColor=none;strokeWidth=4;" vertex="1" parent="CeDH94izONLsoh-cn26r-72">
          <mxGeometry x="32.5" y="20" width="90" height="30" as="geometry" />
        </mxCell>
      </root>
    </mxGraphModel>
  </diagram>
</mxfile>
